<?xml version="1.0" encoding="utf-8"?>
<!-- Generator: Adobe Illustrator 16.0.4, SVG Export Plug-In . SVG Version: 6.00 Build 0)  -->
<!DOCTYPE svg PUBLIC "-//W3C//DTD SVG 1.1//EN" "http://www.w3.org/Graphics/SVG/1.1/DTD/svg11.dtd">
<svg version="1.1" id="Layer_1" xmlns="http://www.w3.org/2000/svg" xmlns:xlink="http://www.w3.org/1999/xlink" x="0px" y="0px"
	 width="256px" height="256px" viewBox="0 0 256 256" style="enable-background:new 0 0 256 256;" xml:space="preserve">
<style type="text/css">
<![CDATA[
	.st0{opacity:0;fill:#FFFFFF;}
	.st1{fill:#FFFFFF;}
]]>
</style>
<g>
	<rect x="62.4" y="63.4" class="st1" width="131.3" height="131.3"/>
	<g>
		<g>
			<polygon points="128,177 138.5,141.9 117.5,141.9 			"/>
		</g>
		<g>
			<polygon points="95.6,82.3 78,169.9 105.4,115.1 			"/>
		</g>
		<g>
			<polygon points="98.3,138 112.3,138 107,120.5 			"/>
		</g>
		<g>
			<polygon points="128,78.6 109.5,115.5 116.3,138 139.7,138 146.4,115.5 			"/>
		</g>
		<g>
			<polygon points="143.7,138 157.7,138 148.9,120.5 			"/>
		</g>
		<g>
			<path d="M150.6,115.1l12,24c0,0,0,0,0,0l15.4,30.7l-17.5-87.6L150.6,115.1z"/>
		</g>
		<g>
			<path d="M128,19.6c-60.4,0-109.4,49-109.4,109.4c0,60.4,49,109.4,109.4,109.4c60.4,0,109.4-49,109.4-109.4
				C237.4,68.6,188.4,19.6,128,19.6z M184.6,183.4c0,0.1,0,0.3,0,0.4c0,0.1,0,0.2-0.1,0.4c0,0.1-0.1,0.2-0.1,0.3
				c-0.1,0.1-0.1,0.2-0.2,0.3c-0.1,0.1-0.1,0.2-0.2,0.2c-0.1,0.1-0.2,0.2-0.3,0.2c0,0-0.1,0.1-0.1,0.1c-0.1,0-0.2,0-0.2,0
				c-0.1,0-0.2,0.1-0.3,0.1c-0.1,0-0.3,0-0.4,0l0,0l0,0c-0.3,0-0.6-0.1-0.9-0.2c0,0-0.1-0.1-0.2-0.1c-0.3-0.2-0.5-0.4-0.6-0.7
				c0,0,0,0,0,0l-21.3-42.7h-17.1l-12.7,42.4c-0.2,0.8-1,1.4-1.8,1.4s-1.6-0.5-1.8-1.4l-12.7-42.4H96.4L75,184.5
				c0,0-0.1,0.1-0.1,0.1c-0.1,0.1-0.1,0.2-0.2,0.3c-0.1,0.1-0.2,0.2-0.3,0.3c-0.1,0.1-0.2,0.1-0.3,0.2c-0.1,0.1-0.2,0.1-0.3,0.1
				c-0.1,0-0.2,0-0.3,0c-0.1,0-0.3,0-0.4,0c0,0-0.1,0-0.1,0c-0.1,0-0.2-0.1-0.2-0.1c-0.1,0-0.2,0-0.3-0.1c0,0-0.1,0-0.1-0.1
				c-0.1-0.1-0.2-0.2-0.3-0.2c-0.1-0.1-0.2-0.2-0.2-0.3c-0.1-0.1-0.1-0.2-0.2-0.3c-0.1-0.1-0.1-0.2-0.2-0.3c0-0.1,0-0.2,0-0.4
				c0-0.1,0-0.3,0-0.4c0,0,0-0.1,0-0.1L93.3,73.9c0.2-0.9,0.9-1.5,1.8-1.6c0.9,0,1.7,0.5,1.9,1.4l10.9,36.4l18.3-36.7
				c0.7-1.3,2.8-1.3,3.5,0l18.3,36.7L159,73.7c0.3-0.8,1.1-1.4,1.9-1.4c0.9,0,1.6,0.7,1.8,1.6l21.9,109.4
				C184.6,183.3,184.5,183.4,184.6,183.4z"/>
		</g>
	</g>
</g>
<rect class="st0" width="256" height="256"/>
</svg>
