<?xml version="1.0" encoding="utf-8"?>
<!-- Generator: Adobe Illustrator 16.0.4, SVG Export Plug-In . SVG Version: 6.00 Build 0)  -->
<!DOCTYPE svg PUBLIC "-//W3C//DTD SVG 1.1//EN" "http://www.w3.org/Graphics/SVG/1.1/DTD/svg11.dtd">
<svg version="1.1" id="Layer_1" xmlns="http://www.w3.org/2000/svg" xmlns:xlink="http://www.w3.org/1999/xlink" x="0px" y="0px"
	 width="226.782px" height="226.782px" viewBox="28.339 28.339 226.782 226.782"
	 enable-background="new 28.339 28.339 226.782 226.782" xml:space="preserve">
<g>
	<rect x="73.694" y="73.694" fill="#3C3C3B" width="136.071" height="136.071"/>
	<g>
		<g>
			<polygon fill="#FFE163" points="141.714,191.449 152.636,155.066 130.8,155.066 			"/>
		</g>
		<g>
			<polygon fill="#FFE163" points="108.089,93.285 89.917,184.152 118.308,127.363 			"/>
		</g>
		<g>
			<polygon fill="#FFE163" points="110.933,151.066 125.425,151.066 119.988,132.949 			"/>
		</g>
		<g>
			<polygon fill="#FFE163" points="141.714,89.496 122.597,127.73 129.597,151.066 153.832,151.066 160.832,127.738 			"/>
		</g>
		<g>
			<path fill="#FFE163" d="M141.73,28.339c-62.625,0-113.391,50.766-113.391,113.391c0,62.609,50.766,113.391,113.391,113.391
				c62.609,0,113.391-50.781,113.391-113.391C255.121,79.105,204.339,28.339,141.73,28.339z M200.371,198.152
				c0.016,0.141,0,0.266,0,0.406c-0.016,0.125-0.031,0.25-0.062,0.375s-0.078,0.219-0.125,0.328
				c-0.062,0.125-0.125,0.234-0.203,0.359c-0.078,0.094-0.155,0.155-0.25,0.25c-0.108,0.094-0.203,0.188-0.328,0.25
				c-0.03,0.03-0.062,0.062-0.094,0.078c-0.078,0.047-0.156,0.016-0.22,0.047c-0.094,0.03-0.188,0.108-0.297,0.125
				c-0.125,0.03-0.266,0.03-0.391,0.03l0,0l0,0c-0.344,0-0.656-0.094-0.938-0.25c-0.047-0.03-0.094-0.062-0.156-0.094
				c-0.266-0.188-0.5-0.406-0.656-0.703c0-0.017-0.031-0.03-0.031-0.047l-22.125-44.242h-17.688l-13.18,43.931
				c-0.25,0.844-1.033,1.405-1.916,1.405c-0.883,0-1.664-0.562-1.914-1.405l-13.18-43.931h-17.688l-22.125,44.242
				c-0.016,0.03-0.055,0.062-0.078,0.094c-0.07,0.125-0.156,0.22-0.25,0.328c-0.086,0.095-0.164,0.188-0.266,0.267
				c-0.094,0.078-0.211,0.125-0.328,0.188c-0.109,0.062-0.219,0.109-0.352,0.141c-0.117,0.031-0.227,0.047-0.352,0.047
				c-0.141,0.017-0.281,0.031-0.422,0c-0.047,0-0.086,0-0.125,0c-0.094-0.016-0.156-0.062-0.242-0.094
				c-0.086-0.031-0.18-0.031-0.266-0.078c-0.039-0.016-0.062-0.047-0.102-0.078c-0.125-0.062-0.227-0.156-0.328-0.25
				c-0.094-0.094-0.18-0.156-0.25-0.266c-0.078-0.109-0.141-0.203-0.188-0.328c-0.062-0.125-0.117-0.219-0.156-0.344
				c-0.031-0.125-0.031-0.25-0.047-0.375c0-0.125-0.016-0.266,0-0.406c0.016-0.047,0-0.094,0-0.125l22.68-113.391
				c0.18-0.906,0.945-1.562,1.867-1.609c0.922-0.039,1.75,0.547,2.008,1.422l11.312,37.688l19-38.008
				c0.68-1.352,2.898-1.352,3.579,0l19.008,38.016L173.82,84.45c0.266-0.875,1.094-1.453,2.016-1.422
				c0.906,0.047,1.688,0.703,1.859,1.609l22.672,113.391C200.371,198.059,200.355,198.105,200.371,198.152z"/>
		</g>
		<g>
			<polygon fill="#FFE163" points="158.011,151.066 172.496,151.066 163.434,132.949 			"/>
		</g>
		<g>
			<path fill="#FFE163" d="M165.121,127.363l12.453,24.907c0.016,0.017,0.016,0.022,0.016,0.03l15.922,31.853l-18.172-90.868
				L165.121,127.363z"/>
		</g>
	</g>
</g>
</svg>
