<?xml version="1.0" encoding="utf-8"?>
<!-- Generator: Adobe Illustrator 16.0.4, SVG Export Plug-In . SVG Version: 6.00 Build 0)  -->
<!DOCTYPE svg PUBLIC "-//W3C//DTD SVG 1.1//EN" "http://www.w3.org/Graphics/SVG/1.1/DTD/svg11.dtd">
<svg version="1.1" id="Layer_1" xmlns="http://www.w3.org/2000/svg" xmlns:xlink="http://www.w3.org/1999/xlink" x="0px" y="0px"
	 width="226.782px" height="226.782px" viewBox="0 0 226.782 226.782" enable-background="new 0 0 226.782 226.782"
	 xml:space="preserve">
<g>
	<rect x="45.354" y="45.354" fill="#3C3C3B" width="136.072" height="136.072"/>
	<g>
		<g>
			<polygon fill="#FFE163" points="113.374,163.11 124.297,126.727 102.46,126.727 			"/>
		</g>
		<g>
			<polygon fill="#FFE163" points="79.75,64.946 61.578,155.813 89.969,99.023 			"/>
		</g>
		<g>
			<polygon fill="#FFE163" points="82.594,122.727 97.085,122.727 91.648,104.61 			"/>
		</g>
		<g>
			<polygon fill="#FFE163" points="113.374,61.157 94.258,99.391 101.258,122.727 125.493,122.727 132.493,99.398 			"/>
		</g>
		<g>
			<path fill="#FFE163" d="M113.391,0C50.766,0,0,50.766,0,113.391c0,62.608,50.766,113.391,113.391,113.391
				c62.608,0,113.391-50.781,113.391-113.391C226.782,50.766,175.999,0,113.391,0z M172.032,169.813c0.016,0.141,0,0.266,0,0.406
				c-0.016,0.125-0.031,0.25-0.062,0.375s-0.078,0.219-0.125,0.326c-0.062,0.125-0.125,0.234-0.203,0.359
				c-0.078,0.094-0.154,0.156-0.25,0.25c-0.107,0.094-0.203,0.189-0.328,0.25c-0.029,0.031-0.062,0.062-0.094,0.078
				c-0.078,0.047-0.156,0.016-0.221,0.047c-0.094,0.031-0.188,0.109-0.297,0.125c-0.125,0.031-0.266,0.031-0.391,0.031l0,0l0,0
				c-0.344,0-0.656-0.094-0.938-0.25c-0.047-0.031-0.094-0.062-0.156-0.094c-0.266-0.189-0.5-0.406-0.656-0.703
				c0-0.018-0.031-0.031-0.031-0.047l-22.125-44.242h-17.688l-13.18,43.93c-0.25,0.844-1.033,1.406-1.916,1.406
				c-0.883,0-1.664-0.562-1.914-1.406l-13.18-43.93H80.59l-22.125,44.242c-0.016,0.029-0.055,0.061-0.078,0.094
				c-0.07,0.125-0.156,0.219-0.25,0.328c-0.086,0.094-0.164,0.188-0.266,0.266c-0.094,0.078-0.211,0.125-0.328,0.189
				c-0.109,0.061-0.219,0.107-0.352,0.141c-0.117,0.031-0.227,0.047-0.352,0.047c-0.141,0.018-0.281,0.031-0.422,0
				c-0.047,0-0.086,0-0.125,0c-0.094-0.016-0.156-0.062-0.242-0.094s-0.18-0.031-0.266-0.078c-0.039-0.016-0.062-0.047-0.102-0.078
				c-0.125-0.062-0.227-0.156-0.328-0.25c-0.094-0.094-0.18-0.156-0.25-0.266c-0.078-0.109-0.141-0.203-0.188-0.328
				c-0.062-0.125-0.117-0.219-0.156-0.344c-0.031-0.125-0.031-0.25-0.047-0.375c0-0.125-0.016-0.268,0-0.406
				c0.016-0.047,0-0.094,0-0.125l22.68-113.392c0.18-0.906,0.945-1.562,1.867-1.609c0.922-0.039,1.75,0.547,2.008,1.422
				l11.312,37.688l19-38.008c0.681-1.352,2.898-1.352,3.58,0l19.008,38.016l11.314-37.695c0.266-0.875,1.094-1.453,2.016-1.422
				c0.906,0.047,1.688,0.703,1.859,1.609l22.672,113.39C172.032,169.719,172.016,169.766,172.032,169.813z"/>
		</g>
		<g>
			<polygon fill="#FFE163" points="129.672,122.727 144.157,122.727 135.094,104.61 			"/>
		</g>
		<g>
			<path fill="#FFE163" d="M136.782,99.023l12.453,24.907c0.016,0.018,0.016,0.021,0.016,0.029l15.922,31.854L147,64.946
				L136.782,99.023z"/>
		</g>
	</g>
</g>
</svg>
