<?xml version="1.0" encoding="utf-8"?>
<!-- Generator: Adobe Illustrator 16.0.4, SVG Export Plug-In . SVG Version: 6.00 Build 0)  -->
<!DOCTYPE svg PUBLIC "-//W3C//DTD SVG 1.1//EN" "http://www.w3.org/Graphics/SVG/1.1/DTD/svg11.dtd">
<svg version="1.1" id="Layer_1" xmlns="http://www.w3.org/2000/svg" xmlns:xlink="http://www.w3.org/1999/xlink" x="0px" y="0px"
	 width="2600px" height="660px" viewBox="0 0 2600 660" enable-background="new 0 0 2600 660" xml:space="preserve">
<rect fill="#FFFFFF" width="2600" height="660"/>
<g>
	<g opacity="0.75">
		<polygon fill="#6ED685" points="208.667,219.333 400.667,123.333 592.667,219.333 400.667,315.333 208.667,219.333 
			208.667,435.333 304.667,483.333 400.667,315.333 592.667,219.333 592.667,435.333 496.667,483.333 400.667,315.333 		"/>
	</g>
	<polygon opacity="0.5" fill="#6ED685" points="400.667,123.333 208.667,219.333 400.667,315.333 592.667,219.333 	"/>
	<polygon opacity="0.6" fill="#62BD71" points="208.667,219.333 208.667,435.333 304.667,483.333 400.667,315.333 	"/>
	
		<line fill="none" stroke="#939598" stroke-width="6" stroke-linecap="round" stroke-linejoin="round" stroke-miterlimit="10" x1="808.667" y1="171.333" x2="808.667" y2="483.333"/>
	<polygon fill="#EA5866" points="496.667,483.333 496.667,267.333 400.667,219.333 400.667,435.333 	"/>
	<polygon fill="#F16576" points="304.667,483.333 304.667,267.333 400.667,219.333 400.667,435.333 	"/>
	<g>
		<path fill="#414042" d="M361.468,290.431c-0.699-1.195-3.184-1.051-5.566,0.348c-2.367,1.367-3.742,3.445-3.059,4.633
			c0.691,1.195,3.164,1.047,5.551-0.344C360.788,293.693,362.151,291.623,361.468,290.431z"/>
		<path fill="#414042" d="M337.468,309.544c-0.699-1.195-3.184-1.047-5.566,0.344c-2.367,1.375-3.742,3.445-3.059,4.637
			c0.691,1.195,3.164,1.051,5.551-0.348C336.788,312.81,338.151,310.732,337.468,309.544z"/>
		<path fill="#414042" d="M361.468,316.142c-0.699-1.195-3.184-1.051-5.566,0.348c-2.367,1.367-3.742,3.445-3.059,4.633
			c0.691,1.195,3.164,1.047,5.551-0.344C360.788,319.404,362.151,317.333,361.468,316.142z"/>
		<path fill="#414042" d="M337.468,333.544c-0.699-1.195-3.184-1.047-5.566,0.344c-2.367,1.375-3.742,3.445-3.059,4.637
			c0.691,1.195,3.164,1.051,5.551-0.348C336.788,336.81,338.151,334.732,337.468,333.544z"/>
		<path fill="#414042" d="M361.468,340.142c-0.699-1.195-3.184-1.051-5.566,0.348c-2.367,1.367-3.742,3.445-3.059,4.633
			c0.691,1.195,3.164,1.047,5.551-0.344C360.788,343.404,362.151,341.333,361.468,340.142z"/>
		<path fill="#414042" d="M337.468,285.544c-0.699-1.195-3.184-1.047-5.566,0.344c-2.367,1.375-3.742,3.445-3.059,4.637
			c0.691,1.195,3.164,1.051,5.551-0.348C336.788,288.81,338.151,286.732,337.468,285.544z"/>
		<path fill="#414042" d="M361.468,268.142c-0.699-1.195-3.184-1.051-5.566,0.348c-2.367,1.367-3.742,3.445-3.059,4.633
			c0.691,1.195,3.164,1.047,5.551-0.344C360.788,271.404,362.151,269.333,361.468,268.142z"/>
		<path fill="#414042" d="M337.468,357.544c-0.699-1.195-3.184-1.047-5.566,0.344c-2.367,1.375-3.742,3.445-3.059,4.637
			c0.691,1.195,3.164,1.051,5.551-0.348C336.788,360.81,338.151,358.732,337.468,357.544z"/>
		<path fill="#414042" d="M361.468,364.142c-0.699-1.195-3.184-1.051-5.566,0.348c-2.367,1.367-3.742,3.445-3.059,4.633
			c0.691,1.195,3.164,1.047,5.551-0.344C360.788,367.404,362.151,365.333,361.468,364.142z"/>
		<path fill="#414042" d="M337.468,381.544c-0.699-1.195-3.184-1.047-5.566,0.344c-2.367,1.375-3.742,3.445-3.059,4.637
			c0.691,1.195,3.164,1.051,5.551-0.348C336.788,384.81,338.151,382.732,337.468,381.544z"/>
		<path fill="#414042" d="M361.468,388.142c-0.699-1.195-3.184-1.051-5.566,0.348c-2.367,1.367-3.742,3.445-3.059,4.633
			c0.691,1.195,3.164,1.047,5.551-0.344C360.788,391.404,362.151,389.333,361.468,388.142z"/>
		<path fill="#414042" d="M337.468,405.544c-0.699-1.195-3.184-1.047-5.566,0.344c-2.367,1.375-3.742,3.445-3.059,4.637
			c0.691,1.195,3.164,1.051,5.551-0.348C336.788,408.81,338.151,406.732,337.468,405.544z"/>
		<path fill="#414042" d="M361.468,412.142c-0.699-1.195-3.184-1.051-5.566,0.348c-2.367,1.367-3.742,3.445-3.059,4.633
			c0.691,1.195,3.164,1.047,5.551-0.344C360.788,415.404,362.151,413.333,361.468,412.142z"/>
		<path fill="#414042" d="M337.468,429.544c-0.699-1.195-3.184-1.047-5.566,0.344c-2.367,1.375-3.742,3.445-3.059,4.637
			c0.691,1.195,3.164,1.051,5.551-0.348C336.788,432.81,338.151,430.732,337.468,429.544z"/>
	</g>
	<g>
		<path fill="#414042" d="M439.866,290.431c0.699-1.195,3.184-1.051,5.566,0.348c2.367,1.367,3.742,3.445,3.059,4.633
			c-0.691,1.195-3.164,1.047-5.551-0.344C440.546,293.693,439.183,291.623,439.866,290.431z"/>
		<path fill="#414042" d="M463.866,309.544c0.699-1.195,3.184-1.047,5.566,0.344c2.367,1.375,3.742,3.445,3.059,4.637
			c-0.691,1.195-3.164,1.051-5.551-0.348C464.546,312.81,463.183,310.732,463.866,309.544z"/>
		<path fill="#414042" d="M439.866,316.142c0.699-1.195,3.184-1.051,5.566,0.348c2.367,1.367,3.742,3.445,3.059,4.633
			c-0.691,1.195-3.164,1.047-5.551-0.344C440.546,319.404,439.183,317.333,439.866,316.142z"/>
		<path fill="#414042" d="M463.866,333.544c0.699-1.195,3.184-1.047,5.566,0.344c2.367,1.375,3.742,3.445,3.059,4.637
			c-0.691,1.195-3.164,1.051-5.551-0.348C464.546,336.81,463.183,334.732,463.866,333.544z"/>
		<path fill="#414042" d="M439.866,340.142c0.699-1.195,3.184-1.051,5.566,0.348c2.367,1.367,3.742,3.445,3.059,4.633
			c-0.691,1.195-3.164,1.047-5.551-0.344C440.546,343.404,439.183,341.333,439.866,340.142z"/>
		<path fill="#414042" d="M463.866,285.544c0.699-1.195,3.184-1.047,5.566,0.344c2.367,1.375,3.742,3.445,3.059,4.637
			c-0.691,1.195-3.164,1.051-5.551-0.348C464.546,288.81,463.183,286.732,463.866,285.544z"/>
		<path fill="#414042" d="M439.866,268.142c0.699-1.195,3.184-1.051,5.566,0.348c2.367,1.367,3.742,3.445,3.059,4.633
			c-0.691,1.195-3.164,1.047-5.551-0.344C440.546,271.404,439.183,269.333,439.866,268.142z"/>
		<path fill="#414042" d="M463.866,357.544c0.699-1.195,3.184-1.047,5.566,0.344c2.367,1.375,3.742,3.445,3.059,4.637
			c-0.691,1.195-3.164,1.051-5.551-0.348C464.546,360.81,463.183,358.732,463.866,357.544z"/>
		<path fill="#414042" d="M439.866,364.142c0.699-1.195,3.184-1.051,5.566,0.348c2.367,1.367,3.742,3.445,3.059,4.633
			c-0.691,1.195-3.164,1.047-5.551-0.344C440.546,367.404,439.183,365.333,439.866,364.142z"/>
		<path fill="#414042" d="M463.866,381.544c0.699-1.195,3.184-1.047,5.566,0.344c2.367,1.375,3.742,3.445,3.059,4.637
			c-0.691,1.195-3.164,1.051-5.551-0.348C464.546,384.81,463.183,382.732,463.866,381.544z"/>
		<path fill="#414042" d="M439.866,388.142c0.699-1.195,3.184-1.051,5.566,0.348c2.367,1.367,3.742,3.445,3.059,4.633
			c-0.691,1.195-3.164,1.047-5.551-0.344C440.546,391.404,439.183,389.333,439.866,388.142z"/>
		<path fill="#414042" d="M463.866,405.544c0.699-1.195,3.184-1.047,5.566,0.344c2.367,1.375,3.742,3.445,3.059,4.637
			c-0.691,1.195-3.164,1.051-5.551-0.348C464.546,408.81,463.183,406.732,463.866,405.544z"/>
		<path fill="#414042" d="M439.866,412.142c0.699-1.195,3.184-1.051,5.566,0.348c2.367,1.367,3.742,3.445,3.059,4.633
			c-0.691,1.195-3.164,1.047-5.551-0.344C440.546,415.404,439.183,413.333,439.866,412.142z"/>
		<path fill="#414042" d="M463.866,429.544c0.699-1.195,3.184-1.047,5.566,0.344c2.367,1.375,3.742,3.445,3.059,4.637
			c-0.691,1.195-3.164,1.051-5.551-0.348C464.546,432.81,463.183,430.732,463.866,429.544z"/>
	</g>
	<rect x="976.667" y="267.333" fill="none" width="1488" height="108"/>
	
		<text transform="matrix(1 0 0 1 976.665 374.1782)" fill="#414042" font-family="'Montserrat-Regular'" font-size="144" letter-spacing="28">SQUAREMELON</text>
</g>
</svg>
