<svg class="logo" xmlns="http://www.w3.org/2000/svg" viewBox="0 0 226.78 226.78"><path class="inner" fill="none" d="M45.35 45.35h136.07v136.07H45.35z"/>
<path class="main" fill="inherit" d="M113.37 163.1l10.93-36.37h-21.84m-22.7-61.78l-18.2 90.85 28.4-56.78m-7.37 23.7H97l-5.43-18.1m21.72-43.46L94.2 99.4l7 23.33h24.27l7-23.33m-2.9 23.33h14.5L135 104.6m1.68-5.5l12.47 24.9v.03l15.93 31.85-18.1-90.9-10.22 34.07z"/>
<path class="main" fill="inherit" d="M113.4 0C50.76 0 0 50.77 0 113.4 0 176 50.77 226.77 113.4 226.77c62.6 0 113.38-50.78 113.38-113.4C226.78 50.8 176 0 113.38 0zm58.63 169.8c.02.15 0 .28 0 .42 0 .12-.03.25-.06.37s-.08.2-.13.3l-.2.3c-.08.1-.15.1-.25.2-.2.1-.2.2-.4.2l-.1.1h-.2c-.1 0-.2.1-.3.1h-.4c-.4 0-.7-.1-1-.26l-.2-.06c-.3-.2-.5-.4-.7-.7 0-.04-.05-.05-.05-.06L146 126.6h-17.7l-13.17 43.9c-.3.86-1.08 1.4-1.96 1.4-.9 0-1.65-.54-1.9-1.4l-13.2-43.9H80.6l-22.13 44.3-.08.1-.3.33-.3.24c-.1.1-.2.15-.4.2-.1.07-.2.1-.4.15-.17.03-.28.05-.4.05s-.28.02-.4 0h-.15l-.25-.1s-.12-.03-.2-.08l-.1-.1-.3-.3-.28-.3c-.1-.1-.18-.2-.2-.3l-.2-.4-.03-.4v-.6L77.4 56.3c.17-.9.94-1.57 1.86-1.6.92-.05 1.75.53 2 1.4L92.6 93.8l19-38c.68-1.36 2.9-1.36 3.58 0l19 38 11.32-37.7c.27-.87 1.1-1.44 2.02-1.4.9.03 1.7.7 1.86 1.6l22.67 113.4v.1z"/>
</svg>