<?xml version="1.0" encoding="utf-8"?>
<!-- Generator: Adobe Illustrator 16.0.4, SVG Export Plug-In . SVG Version: 6.00 Build 0)  -->
<!DOCTYPE svg PUBLIC "-//W3C//DTD SVG 1.1//EN" "http://www.w3.org/Graphics/SVG/1.1/DTD/svg11.dtd">
<svg version="1.1" id="Layer_1" xmlns="http://www.w3.org/2000/svg" xmlns:xlink="http://www.w3.org/1999/xlink" x="0px" y="0px"
	 width="1202.5px" height="113px" viewBox="0 0 1202.5 113" enable-background="new 0 0 1202.5 113" xml:space="preserve">
<path fill="#FFFFFF" d="M0,113c0,0,5.25,0,8.5-5.5l3.75-5.5c4.375-1.25,4.25-3,4.25-3s-5.332-0.658,2-3s11-1,11-1l3,1l-1-5l-2-2l3,1
	c0,0-2.814-5.048-2-8s2-3,2-3l2,1v6c0,0,0.13,1.404,1,4s1,5,1,5s1.423-3.217,3-3s3,2,3,2s1.351-3.395,5-2s4,3,4,3l6,2l2-1
	c0,0-2.016-1.199-2-4s2.127-4.208,5-4s4,0,4,0s0.041-2.049,2-3s6.877-0.91,9,1s2,3,2,3s3.352-0.708,7,0s8,2,8,2l1,1
	c0,0,0.567-2.699,3-3s3,1,3,1s-0.221-2.764,2-3s5,2,5,2s1.719,1.311,3,0s4.068-1.514,5-2s1.31-1.578,0-2s-3.919-1.299-4-3s2-1,2-1
	v-2c0,0-1.949-1.713-1-3s3.572-0.809,6,1s4,3,4,3s0.081-2.52,0-4s-0.678-1.479-1-3s-2.837-2.303,0-3s5.604-3.036,7-1
	s1.327,5.691,0,6s-2,1-2,1s1.177,0.023,3,1s2,3,2,3s2.275,0.43,3,1s3,1,3,1l2-1v-3c0,0-0.095-2.992-2-3s-1.418,2.201-3,2
	s-1.918-0.454-2-3s1.439-2.77,3-3s3,0,3,0s-2.189-4.098-2-6s0.384-2.354,1-3s3.216,1.301,3,2s1,5,1,5s3.526,1.137,4,3s1,3,1,3l4,1
	l5,1v-3h2v-1c0,0-4.025-1.372-4-3s-1.913-2.27-2-5s-0.09-4.786,1-5s0.182-3.234-1-6s-3.474-14.287-4-17s-3.341-8.671-5-9
	s-4.043-0.614-4-2s0.039-1.873,1-3s3-1,3-1s-1.775-11.74-2-14s-0.686-6.024,1-6s2.259,4.924,2,7s3.061,13.709,4,16
	s4.733,13.632,5,16s2,3,2,3h2c0,0-0.249-1.808-1-5s-1.806-10.955-1-14s-0.974-6.899,1-7s5.488-0.503,5,2s-2,2-2,2s-0.262,6.602,0,9
	s0.394,6.399,1,9s1,5,1,5h2c0,0-0.267-4.855,0-7s1.342-1.855,3-2s2-1,2-1s-1.288-0.955-1-3s2-5,2-5s1.165-4.3,1-6s-1.158-3.653-1-9
	s1-6,1-6s0.312-5.059,2-5s2.424,1.295,2,7s0,9,0,9s-0.098,0.439-0.25,1.123C173.713,20.537,172.5,26,172.5,26v5l3-12l1-8l1-8l2-3h2
	c0,0,0.829,6.354,0,8s-2,7-2,7s-1.835,5.058-2,7s-2,12-2,12l-2,4l2,2c0,0,2.57-3.023,4-3s1,4,1,4l-1,2c0,0,4.376-1.316,3,1
	s-2.67,6.132-5,6s-1-3-1-3l-2,1v3c0,0-2.381-1.656-3,0s-1,4-1,4h4l3,1c0,0-1.006,1.904-1,4s-0.281,3.253-1,5s0,4,0,4l-2,4l1,3h2
	l-1,6l-4-1v4l2-1h2l2-5c0,0,0.68-0.688,2-2s1.956-0.785,3-3s1.887-4.238,4-4s2,2,2,2s-0.553-2.477,3-4s7-3,7-3s-1.173-0.449-2-5
	s-2-6-2-6s-1.44-0.32-2,1s-2.354,2.792-4,1s-0.54-2.854-1-5s-1.665-1.67,2-2s5-1,5-1s0.138-1.808,2-2s3,2,3,2
	s0.762,0.508,1.518,1.012C201.762,49.508,202.5,50,202.5,50l2-1c0,0-4.169-2.26-4-4s0-3,0-3s-1.944-0.933-2-3s2.077-2.071-1-3
	s-5.415,0.598-4-2s0.81-3.55,6-4s7.186-5.727,9-2s2,6,2,6l2,1c0,0-0.862,2.02,0,4s-0.384,4.102,2,4s3.311-0.363,3,2s2.75,3.25,4,2
	s4.53,1.68,2,3s-1.418,4.49,0,5s2.823,1.986,2,4c-0.823,2.014-2.177,2.133-2,4s2.25,1.25,2,3s-2,3-2,3s0.729,0.312,2,1s3,3,3,3
	s0.03,1.59,2,2s5.928-0.125,5,2s-0.831,6.047-1,7s-2.301,0.686-3,2s1,1,1,1s1.815,1.064,4,1s4.062-0.639,6-1s4.264-1.414,4-3
	s1.549-1.746,2-3s2.471-4.587,4-5s2.351,1.965,2,4s2,3,2,3s3.299-1.139,4,0s1.01,1.202,2,3s7.184,1.841,12,2s10.546,1.246,13,2
	s4.96-0.716,6-2s1.817-1.846,4-2s5.481-0.514,6,1s2,4,2,4l2-2l2-2l-2-2c0,0-0.087-2.018,2-3s0.426-1.389,5-1s3.551,0.686,7,1
	s7,2,7,2l2-2c0,0,4.72-0.111,5,1s0,3,0,3l-2,2l3,2l1,3c0,0,9.294,3.621,16,4s7.169-1.258,10-1s5-1,5-1v-3c0,0,3.109-0.904,4,0
	s-0.003,2.111,1,3s4-1,4-1l6,1c0,0,0.256-0.025,2-1s0.041-0.525,3-1s5,0,5,0v-3c0,0,7.653-2.672,9,0s5,5,5,5s4.046-0.057,4,1
	s-1,4-1,4l3,1l9,1c0,0,2.753-2.271,6-2s5.62,1.014,7,3s3,3,3,3l15-1c0,0,0.582-0.745,5-1s9,3,9,3s3.074-2.383,5-3s5-1,5-1
	s0.522-1.893,3-2s4.286,1.521,7,3s5,2,5,2s1.854-0.163,3-1s2.704-2.801,5-3s6.364-2.46,9,1s2,3,2,3s5.239-2.35,7-2s6,2,6,2h3
	c0,0-0.592-3.447,2-4s4.257,0.078,5,2s5,1,5,1l3,2c0,0,0.628,0.217,4,0s1-3,1-3s4.171,0.145,5,0s3.87-0.93,6-1s4.301-0.904,6,1
	s1,4,1,4s0.521-4.646,7-5s12.124,1.01,14,2s2,2,2,2h3c0,0,2.99-3.072,8-3s6,0,6,0s-0.264-2.43,2-4s2.711-2.061,7-2s4.033-0.139,7-2
	c2.965-1.861,6-3,6-3h12c0,0,0.732,2.564,2,3s4,1,4,1l1-2h4c0,0-1.164-1,7-1c8.162,0,8,2,8,2s7.385,0,9,0s1.678-1,4-1
	c2.32,0,6.738,0.63,7,2c0.26,1.37,2,5,2,5l2-1l1-3c0,0,1-0.5,3,0s4-1,4-1l3,2l2,2c0,0-0.598-1.965,1-2c1.596-0.035,6,1,6,1
	s2.506,0.794,4,1c1.492,0.206,3,0,3,0s0.559-0.65,2-1s4,1,4,1s3.773,2.005,5,2c1.225-0.005,3,3,3,3l1,2h1c0,0,1.602-2.219,3-2
	c1.396,0.219,3,2,3,2h3h3c0,0,1.613-1.594,4-2c2.385-0.406,3,1,3,1s0.648-0.758,2-3s3-2,3-2s3.266-0.917,4,1s2,4,2,4l1,2v-4l2-1
	l-2-1c0,0-0.396-2.1-1-4c-0.605-1.9,0-4,0-4s5.434-1.21,6,0s1.359,2.938,0,4c-1.361,1.062-2,1-2,1h7c0,0,1.477,4.117,0,6s-1,2-1,2
	h16c0,0-0.842-1,1-1s2,1,2,1l18,1h16c0,0-1.779-1,2-1s4,1,4,1h2l1-4c0,0,3.732-0.697,5,0c1.266,0.697,3,2,3,2l5,1h3
	c0,0-0.451-1.926,2-4s5-2,5-2s-1.619-0.201-1-3s1-3,1-3s0.66,0,1.359,0c0.795,0,1.641,0,1.641,0l-5-2c0,0,3.467-0.865,1-2
	s-3.672-0.482-4-4c-0.33-3.518-0.654-4.249,1-5c1.652-0.751,2-1,2-1l1-2c0,0-0.848-1.866-1-4s0-2,0-2s1.371-0.326,2.928-0.326
	c1.558,0,0.092,0.186,0.072,0.326c-0.17,1.172,1,1,1,1s-0.869-2.189,1-2s2.953,0.529,3,2c0.045,1.471,0.238,0.807,2,2
	c1.76,1.193,3,2,3,2s0.16,1.915,2,2c1.838,0.085,1,2,1,2s2.209,0.79,1,3s-2,3-2,3l-2,4c0,0,0.285,3.385-1,5c-1.287,1.615,0,2,0,2
	l5-1l3-2c0,0,3.441,0.896,5-1s-1-2-1-2s-1.844,0.328-2-3c-0.158-3.328,2-4,2-4l-2-1l1-3c0,0-0.92-0.74,1-2s3.17-1.916,3,0
	c-0.172,1.916,1,4,1,4l1-1c0,0-0.756-1.2-1-3s2-2,2-2v-2c0,0-1.691-0.484-2-2s2-1,2-1l1-9c0,0-2.516-0.312-4-1
	c-1.486-0.688-1.877-1.886-1-3s4-1,4-1l1-6c0,0-2-2.524-2-6s3.223-3.438,3-6s0-16,0-16s0.73-1.115,2,0c1.268,1.115,1,17,1,17
	s2.441,0.454,3,2c0.557,1.546,3.748,2.812,2,5s-4,5-4,5l-1,6h3v2l-2,2v7c0,0,0.637,2.266,0,3s-2,2-2,2l2,2l4,1c0,0,0.412,2.059-1,2
	s-2,0-2,0v2v2c0,0-3.162-1.945-3,1c0.16,2.945,1,4,1,4l1,2l2-2l1-6h3c0,0,0.594-0.459,1-2s0-4,0-4s-1-1.02-1-4s4.74-9,10-9
	s3.732,0.434,4,3s-4,3-4,3s0.416,0.652,3,2c2.582,1.348,3,6,3,6s1.498,1.352,1,3c-0.5,1.648-5,3-5,3h3c0,0,2.875,0.369,5,1s4,2,4,2
	c-0.928,2.992,1,4,1,4s0.65-0.635,1,2s-1.496,2.537-2,5s1,4,1,4s-0.428,1.413,3,3c3.426,1.587,1.514,2,12,2s33,0,33,0s1.527-2,5-2
	s3,2,3,2h3c0,0-0.301-1.445,1-4c1.299-2.555,4.561-5.407,7-5c2.438,0.407,5,2,5,2s-0.764-2.842,3-2s2.705-2.489,5-2
	c2.293,0.489,4,4,4,4s4.02-0.398,7,0c2.979,0.398,3.578,0.158,9,0s3.072-1,7-1c3.926,0,5,2,5,2s-0.771-4,1-4c1.77,0,2.529-1,5-1
	c2.469,0,3.686,0.102,4,2c0.312,1.898,1.656,2.359,3,3s6.168,0.387,8,3c1.83,2.613,3,3,3,3h6h8c0,0,2.246-2.438,3-2
	c0.752,0.438,0.07-4.191,1-6c0.928-1.809,5-1,5-1s0.574-2,2-2c1.424,0,3.398,1.398,4,2c0.6,0.602,0.199,2.527,2,3
	c1.799,0.473,3.902,2.451,4,4c0.096,1.549,1,2,1,2v-5c0,0-1-1.2-1-4s2-3,2-3h9c0,0,1.006,0.955,1,2c-0.008,1.045,0,10,0,10l2-1
	c0,0,1.197-1.188,3-2s4-1,4-1s1.148-0.398,1-2c-0.15-1.602,0-2,0-2l1-2v-2l4,1c0,0,3.541,0.175,3,2c-0.543,1.825-1,3-1,3l2,3l2,2v-2
	v-2l2-1c0,0-5.023-3.506-5-6c0.021-2.494,2-4,2-4h1l1-3c0,0-0.988-0.834-1-3s0-5,0-5l1-3c0,0,2.297-1.684,3,0s0,5,0,5v6v5l1,3l2,2
	l2,1v2l1,2l1,2l2,1c0,0,0.244,2.128,2,2c1.754-0.128,8.618-3.586,23.5-3.375c17.625,0.25,20.375,2.875,20.375,2.875
	c1,3.5,17.125,3.5,17.125,3.5H0L0,113z"/>
</svg>
