<?xml version="1.0" encoding="utf-8"?>
<!-- Generator: Adobe Illustrator 16.0.4, SVG Export Plug-In . SVG Version: 6.00 Build 0)  -->
<!DOCTYPE svg PUBLIC "-//W3C//DTD SVG 1.1//EN" "http://www.w3.org/Graphics/SVG/1.1/DTD/svg11.dtd">
<svg version="1.1" id="Layer_1" xmlns="http://www.w3.org/2000/svg" xmlns:xlink="http://www.w3.org/1999/xlink" x="0px" y="0px"
	 width="1200px" height="25px" viewBox="0 0 1200 25" enable-background="new 0 0 1200 25" xml:space="preserve">
<path fill="#D1D3D4" d="M593,12c0-1.104,0.896-2,2-2s2,0.896,2,2l2,2c1.104,0,2,0.896,2,2s-0.896,2-2,2l-2,2c0,1.104-0.896,2-2,2
	s-2-0.896-2-2s0.896-2,2-2l2-2l-2-2C593.896,14,593,13.104,593,12z M599,10c-1.104,0-2-0.896-2-2s0.896-2,2-2l2-2
	c0-1.104,0.896-2,2-2s2,0.896,2,2s-0.896,2-2,2l-2,2l2,2c1.104,0,2,0.896,2,2c0,1.104-0.896,2-2,2s-2-0.896-2-2L599,10z"/>
<g>
	<line fill="none" stroke="#D1D3D4" stroke-miterlimit="10" x1="565" y1="12.5" x2="214.998" y2="12.5"/>
	<line fill="none" stroke="#D1D3D4" stroke-miterlimit="10" x1="985.002" y1="12.5" x2="635" y2="12.5"/>
</g>
</svg>
