<?xml version="1.0" encoding="utf-8"?>
<!-- Generator: Adobe Illustrator 16.0.4, SVG Export Plug-In . SVG Version: 6.00 Build 0)  -->
<!DOCTYPE svg PUBLIC "-//W3C//DTD SVG 1.1//EN" "http://www.w3.org/Graphics/SVG/1.1/DTD/svg11.dtd">
<svg version="1.1" id="Layer_1" xmlns="http://www.w3.org/2000/svg" xmlns:xlink="http://www.w3.org/1999/xlink" x="0px" y="0px"
	 width="12px" height="20px" viewBox="0 0 12 20" enable-background="new 0 0 12 20" xml:space="preserve">
<path fill-rule="evenodd" clip-rule="evenodd" fill="#F15C5A" d="M0,10c0-1.104,0.896-2,2-2s2,0.896,2,2l2,2c1.104,0,2,0.896,2,2
	s-0.896,2-2,2l-2,2c0,1.104-0.896,2-2,2s-2-0.896-2-2s0.896-2,2-2l2-2l-2-2C0.896,12,0,11.104,0,10z M6,8C4.896,8,4,7.104,4,6
	s0.896-2,2-2l2-2c0-1.104,0.896-2,2-2s2,0.896,2,2s-0.896,2-2,2L8,6l2,2c1.104,0,2,0.896,2,2s-0.896,2-2,2s-2-0.896-2-2L6,8z"/>
</svg>
