<svg version="1" xmlns="http://www.w3.org/2000/svg" width="933.333" height="933.333" viewBox="0 0 700.000000 700.000000"><path d="M331.8 1c-63 3.4-122.6 23-174.3 57.3C54 127-5 243.4 1.1 366.8 2.8 401.5 8.2 430 19 462.3c31 91.8 100.7 168.1 189.2 207.2 50 22.1 104.1 32.1 158.5 29.4 34.9-1.7 63.3-7.1 95.7-18C588.8 638.3 680.7 525.3 697 392.5c3.9-32.3 2.8-72.6-3.1-105-18.9-103.7-83.4-193-176.4-244.3-43.1-23.7-95.7-39.1-142.7-41.7-21-1.1-28.8-1.2-43-.5zm-81.4 170.9c.7 1.4 8.9 27.9 18.2 58.8 9.2 31 17 56.3 17.3 56.3.4 0 13.8-26.3 29.8-58.5 25.2-50.4 29.6-58.5 31.8-59.1 6.6-1.6 5.4-3.5 36.7 59.1 16.1 32.2 29.5 58.5 29.8 58.5.3 0 8.3-26.1 17.9-58 9.6-31.9 17.9-58.4 18.5-58.9 2-1.6 5.1-1.8 7.9-.4 1.5.7 2.7 1.5 2.7 1.6 0 .1 15.8 79 35 175.2 19.2 96.2 35 176.4 35 178.2 0 1.7-.7 3.9-1.6 4.7-2 2.1-6.8 2-8.9 0-.9-.9-16.9-32.2-35.6-69.6L451 392l-27.2.2-27.2.3-20.2 67c-11.1 36.9-20.5 67.8-20.9 68.8-.9 2.2-5 3.2-8.4 2.1-2.5-.9-3.7-4.5-23.2-69.4l-20.6-68.5-27.1-.3-27.2-.2-34.5 69c-36.9 73.7-35.4 71.2-41.8 69.6-5.5-1.3-6.7 6.1 30.9-181.9 19.4-97.2 35.6-177.2 36-177.8 2.1-3.4 8.9-2.8 10.8 1z"/><path d="M320.7 248.5c-15.8 31.6-28.7 58.3-28.7 59.3 0 .9 4.7 17 10.3 35.7l10.3 34H387.3l9.8-32.5c5.4-17.9 10.1-33.8 10.5-35.5.6-2.5-3.4-11.1-28.2-60.7C363.5 217 350.3 191 350 191c-.3 0-13.4 25.9-29.3 57.5zM245.7 205c-2 8.4-53.8 269.3-53.5 269.5.2.2 19.4-37.7 42.7-84.3l42.3-84.7-14.6-49c-8.1-27-15-50.1-15.5-51.5l-.8-2.5-.6 2.5zM438 254.2l-15.3 51.2 42.4 84.8c23.3 46.6 42.5 84.5 42.6 84.1.3-.9-53.4-270.4-54-270.9-.2-.2-7.2 22.7-15.7 50.8zM269.2 351.5L256 378h21.6c17.3 0 21.5-.3 21.1-1.3-.3-.7-3.8-12.3-7.8-25.7-4-13.5-7.5-24.8-7.8-25.2-.4-.4-6.6 11.2-13.9 25.7zM416.6 326c-1.5 3.8-15.5 51.4-15.2 51.7.2.2 9.8.2 21.3.1l21.1-.3-13.3-26.5c-8-15.9-13.5-25.9-13.9-25zM317 392.2c.1 2.3 32.8 108.8 33.2 108.2.3-.5 7.7-24.5 16.3-53.4 8.6-28.8 15.9-53 16.2-53.7.4-1.1-5.8-1.3-32.6-1.3-18.2 0-33.1.1-33.1.2z"/></svg>